<svg width="183" height="183" viewBox="0 0 183 183" fill="none" xmlns="http://www.w3.org/2000/svg">
<g clip-path="url(#clip0_108_2)">
<g filter="url(#filter0_i_108_2)">
<circle cx="91.5" cy="91.5" r="91.5" fill="#7E46F2"/>
</g>
<circle cx="91.5" cy="91.5" r="86.5" stroke="#6D4FD7" stroke-width="10"/>
<g filter="url(#filter1_d_108_2)">
<path d="M95.5489 29.3491C114.925 29.3491 130.632 45.3463 130.632 65.0798V85.625C130.632 105.359 114.925 121.356 95.5489 121.356C92.5054 121.356 89.5524 120.961 86.7365 120.219L86.7369 122.645C86.7369 137.081 75.1909 148.81 60.8597 149.044L60.4245 149.047V70.4395L60.4647 70.4385L60.4658 65.0798C60.4658 45.3463 76.1731 29.3491 95.5489 29.3491ZM95.5489 56.1471C90.705 56.1471 86.7782 60.1464 86.7782 65.0798V85.625C86.7782 90.5584 90.705 94.5577 95.5489 94.5577C100.393 94.5577 104.32 90.5584 104.32 85.625V65.0798C104.32 60.1464 100.393 56.1471 95.5489 56.1471Z" fill="white"/>
</g>
</g>
<defs>
<filter id="filter0_i_108_2" x="0" y="0" width="188" height="188" filterUnits="userSpaceOnUse" color-interpolation-filters="sRGB">
<feFlood flood-opacity="0" result="BackgroundImageFix"/>
<feBlend mode="normal" in="SourceGraphic" in2="BackgroundImageFix" result="shape"/>
<feColorMatrix in="SourceAlpha" type="matrix" values="0 0 0 0 0 0 0 0 0 0 0 0 0 0 0 0 0 0 127 0" result="hardAlpha"/>
<feOffset dx="5" dy="5"/>
<feGaussianBlur stdDeviation="10"/>
<feComposite in2="hardAlpha" operator="arithmetic" k2="-1" k3="1"/>
<feColorMatrix type="matrix" values="0 0 0 0 0.419608 0 0 0 0 0.235294 0 0 0 0 0.807843 0 0 0 0.3 0"/>
<feBlend mode="normal" in2="shape" result="effect1_innerShadow_108_2"/>
</filter>
<filter id="filter1_d_108_2" x="60.4245" y="29.3491" width="74.2076" height="123.698" filterUnits="userSpaceOnUse" color-interpolation-filters="sRGB">
<feFlood flood-opacity="0" result="BackgroundImageFix"/>
<feColorMatrix in="SourceAlpha" type="matrix" values="0 0 0 0 0 0 0 0 0 0 0 0 0 0 0 0 0 0 127 0" result="hardAlpha"/>
<feOffset dx="4" dy="4"/>
<feComposite in2="hardAlpha" operator="out"/>
<feColorMatrix type="matrix" values="0 0 0 0 0 0 0 0 0 0 0 0 0 0 0 0 0 0 0.15 0"/>
<feBlend mode="normal" in2="BackgroundImageFix" result="effect1_dropShadow_108_2"/>
<feBlend mode="normal" in="SourceGraphic" in2="effect1_dropShadow_108_2" result="shape"/>
</filter>
<clipPath id="clip0_108_2">
<rect width="183" height="183" fill="white"/>
</clipPath>
</defs>
</svg>
