<svg width="620" height="620" viewBox="0 0 620 620" fill="none" xmlns="http://www.w3.org/2000/svg">
<circle cx="310" cy="310" r="306" fill="white"/>
<g clip-path="url(#clip0_33_22)">
<mask id="mask0_33_22" style="mask-type:luminance" maskUnits="userSpaceOnUse" x="-90" y="-90" width="801" height="801">
<path d="M710.31 -89.9471H-89.6898V710.053H710.31V-89.9471Z" fill="white"/>
</mask>
<g mask="url(#mask0_33_22)">
<mask id="mask1_33_22" style="mask-type:luminance" maskUnits="userSpaceOnUse" x="-758" y="-759" width="2138" height="2138">
<path d="M-757.99 -758.456H1379.03V1378.56H-757.99V-758.456Z" fill="white"/>
</mask>
<g mask="url(#mask1_33_22)">
<path d="M541.168 169.484L307.33 169.854C229.902 169.854 167.131 232.625 167.131 310.053C167.131 387.481 229.902 450.253 307.33 450.253H532.511" stroke="black" stroke-width="56.2469" stroke-miterlimit="10" stroke-linecap="round"/>
<path d="M41.8342 310.053H581.983" stroke="black" stroke-width="56.2469" stroke-miterlimit="10" stroke-linecap="round"/>
<path d="M310.053 38.1235C460.236 38.1235 581.983 159.871 581.983 310.053C581.983 460.236 460.236 581.983 310.053 581.983C159.871 581.983 38.1235 460.236 38.1235 310.053C38.1235 159.871 159.871 38.1235 310.053 38.1235Z" stroke="black" stroke-width="56.2469" stroke-miterlimit="10" stroke-linecap="round"/>
</g>
</g>
</g>
<defs>
<clipPath id="clip0_33_22">
<rect width="600.106" height="600.106" fill="white" transform="translate(10 10)"/>
</clipPath>
</defs>
</svg>
