<?xml version="1.0" encoding="UTF-8"?>
<svg
  xmlns="http://www.w3.org/2000/svg"
  xmlns:xlink="http://www.w3.org/1999/xlink"
  width="21px"
  height="36px"
  viewBox="0 0 21 35"
  version="1.1"
>
  <g id="surface1">
    <path
      style="stroke: none; fill-rule: nonzero; fill: rgb(255, 255, 255); fill-opacity: 1"
      d="M 10.484375 0.078125 C 16.269531 0.078125 20.960938 4.726562 20.960938 10.457031 L 20.960938 16.425781 C 20.960938 22.15625 16.269531 26.804688 10.484375 26.804688 C 9.578125 26.804688 8.695312 26.691406 7.855469 26.476562 L 7.855469 27.179688 C 7.855469 31.371094 4.410156 34.78125 0.128906 34.847656 L 0 34.847656 L 0 12.015625 L 0.0117188 12.015625 L 0.0117188 10.457031 C 0.0117188 4.726562 4.703125 0.078125 10.484375 0.078125 Z M 10.484375 7.863281 C 9.039062 7.863281 7.867188 9.023438 7.867188 10.457031 L 7.867188 16.425781 C 7.867188 17.859375 9.039062 19.019531 10.484375 19.019531 C 11.933594 19.019531 13.105469 17.859375 13.105469 16.425781 L 13.105469 10.457031 C 13.105469 9.023438 11.933594 7.863281 10.484375 7.863281 Z M 10.484375 7.863281 "
    />
  </g>
</svg>
